<?xml version="1.0" encoding="UTF-8"?>
<svg xmlns="http://www.w3.org/2000/svg" xmlns:xlink="http://www.w3.org/1999/xlink" width="130px" height="130px" viewBox="0 0 130 130" version="1.1">
<g id="surface1">
<path style=" stroke:none;fill-rule:nonzero;fill:rgb(0%,0%,0%);fill-opacity:1;" d="M 60.429688 0.175781 C 53.828125 0.8125 49.765625 1.625 44.6875 3.300781 C 29.707031 8.226562 17.214844 18.28125 9.039062 31.992188 C 4.597656 39.40625 1.675781 48.011719 0.457031 57.128906 C 0.0507812 60.253906 0.0507812 70.027344 0.457031 72.996094 C 1.066406 77.261719 2.058594 81.628906 3.324219 85.386719 C 5.253906 91.175781 5.816406 91.988281 7.589844 91.378906 C 8.988281 90.898438 9.039062 90.058594 7.894531 87.011719 C 3.351562 74.925781 2.613281 62.433594 5.6875 50.019531 C 9.953125 32.832031 21.9375 18.027344 37.957031 10.15625 C 44.003906 7.183594 49.589844 5.433594 56.238281 4.417969 C 60.328125 3.785156 68.910156 3.785156 73.253906 4.417969 C 84.472656 6.042969 93.742188 10.003906 103.113281 17.191406 C 104.636719 18.355469 105.753906 19.042969 106.160156 19.042969 C 107.097656 19.042969 107.910156 18.179688 107.910156 17.164062 C 107.910156 16.222656 107.148438 15.410156 104.230469 13.175781 C 96.28125 7.082031 85.160156 2.386719 75.027344 0.785156 C 70.761719 0.128906 63.933594 -0.175781 60.429688 0.175781 Z M 60.429688 0.175781 "/>
<path style=" stroke:none;fill-rule:nonzero;fill:rgb(0%,0%,0%);fill-opacity:1;" d="M 58.296875 11.707031 C 46.210938 13.355469 35.75 18.535156 27.144531 27.144531 C 19.167969 35.113281 14.246094 44.457031 12.136719 55.554688 C 11.628906 58.144531 11.550781 59.363281 11.550781 65 C 11.550781 70.636719 11.628906 71.855469 12.136719 74.445312 C 14.246094 85.566406 19.195312 94.886719 27.144531 102.855469 C 35.113281 110.804688 44.433594 115.753906 55.554688 117.863281 C 58.144531 118.371094 59.363281 118.449219 65 118.449219 C 70.636719 118.449219 71.855469 118.371094 74.445312 117.863281 C 85.566406 115.753906 94.886719 110.804688 102.855469 102.855469 C 110.804688 94.886719 115.753906 85.566406 117.863281 74.445312 C 118.371094 71.855469 118.449219 70.636719 118.449219 65 C 118.449219 59.363281 118.371094 58.144531 117.863281 55.554688 C 115.753906 44.433594 110.804688 35.113281 102.855469 27.144531 C 96.308594 20.589844 89.019531 16.199219 80.410156 13.609375 C 75.128906 12.011719 72.464844 11.628906 65.886719 11.527344 C 62.691406 11.503906 59.261719 11.578125 58.296875 11.707031 Z M 72.035156 15.613281 C 82.875 17.238281 92.394531 22.039062 100.167969 29.832031 C 107.960938 37.605469 112.761719 47.125 114.386719 57.964844 C 114.894531 61.472656 114.894531 68.527344 114.386719 72.035156 C 112.761719 82.875 107.960938 92.394531 100.167969 100.167969 C 92.394531 107.960938 82.875 112.761719 72.035156 114.386719 C 68.527344 114.894531 61.472656 114.894531 57.964844 114.386719 C 47.125 112.761719 37.605469 107.960938 29.832031 100.167969 C 22.039062 92.394531 17.238281 82.875 15.613281 72.035156 C 15.105469 68.527344 15.105469 61.472656 15.613281 57.964844 C 17.238281 47.125 22.039062 37.605469 29.832031 29.832031 C 37.527344 22.113281 46.996094 17.292969 57.761719 15.640625 C 60.964844 15.132812 68.707031 15.132812 72.035156 15.613281 Z M 72.035156 15.613281 "/>
<path style=" stroke:none;fill-rule:nonzero;fill:rgb(0%,0%,0%);fill-opacity:1;" d="M 43.949219 38.113281 C 42.605469 38.644531 42.683594 37.347656 42.683594 65 C 42.683594 92.828125 42.605469 91.355469 44.027344 91.914062 C 44.964844 92.269531 59.386719 92.269531 60.328125 91.914062 C 61.75 91.355469 61.675781 92.828125 61.675781 65 C 61.675781 37.171875 61.75 38.644531 60.328125 38.085938 C 59.441406 37.753906 44.789062 37.78125 43.949219 38.113281 Z M 57.890625 65 L 57.890625 88.359375 L 46.464844 88.359375 L 46.464844 41.640625 L 57.890625 41.640625 Z M 57.890625 65 "/>
<path style=" stroke:none;fill-rule:nonzero;fill:rgb(0%,0%,0%);fill-opacity:1;" d="M 69.597656 38.113281 C 68.25 38.644531 68.324219 37.347656 68.324219 65 C 68.324219 92.828125 68.25 91.355469 69.671875 91.914062 C 70.613281 92.269531 85.035156 92.269531 85.972656 91.914062 C 87.394531 91.355469 87.316406 92.144531 87.34375 73.355469 C 87.34375 56.113281 87.34375 55.910156 86.808594 55.25 C 86.097656 54.335938 84.777344 54.335938 84.066406 55.25 C 83.535156 55.910156 83.535156 56.113281 83.535156 72.136719 L 83.535156 88.359375 L 72.109375 88.359375 L 72.109375 41.640625 L 83.535156 41.640625 L 83.535156 44.917969 C 83.535156 47.835938 83.585938 48.242188 84.066406 48.851562 C 84.777344 49.765625 86.097656 49.765625 86.808594 48.851562 C 87.292969 48.214844 87.34375 47.835938 87.34375 43.699219 C 87.316406 38.871094 87.242188 38.59375 85.972656 38.085938 C 85.082031 37.753906 70.433594 37.78125 69.597656 38.113281 Z M 69.597656 38.113281 "/>
<path style=" stroke:none;fill-rule:nonzero;fill:rgb(0%,0%,0%);fill-opacity:1;" d="M 111.082031 21.964844 C 110.042969 22.980469 110.246094 23.664062 112.300781 26.253906 C 119.511719 35.242188 123.777344 44.992188 125.582031 56.621094 C 126.242188 60.707031 126.214844 69.519531 125.582031 73.761719 C 123.5 87.394531 117.277344 99.480469 107.503906 108.925781 C 101.308594 114.917969 93.894531 119.589844 85.949219 122.511719 C 75.765625 126.269531 63.730469 127.15625 52.839844 124.921875 C 40.625 122.433594 29.605469 116.363281 20.921875 107.351562 C 18.457031 104.785156 15.386719 100.953125 13.839844 98.515625 C 12.621094 96.585938 11.933594 95.976562 11.019531 95.976562 C 10.15625 95.976562 9.140625 96.917969 9.140625 97.730469 C 9.140625 99.074219 14.246094 105.878906 18.457031 110.222656 C 20.210938 112.023438 22.699219 114.332031 23.996094 115.402344 C 41.132812 129.316406 64.390625 133.605469 85.3125 126.699219 C 100.292969 121.773438 112.785156 111.71875 120.960938 98.007812 C 134.699219 74.980469 132.566406 45.449219 115.578125 24.222656 C 113.191406 21.226562 112.253906 20.769531 111.082031 21.964844 Z M 111.082031 21.964844 "/>
</g>
</svg>
